<svg t="1695087705849" class="icon" viewBox="0 0 1024 1024" version="1.1" xmlns="http://www.w3.org/2000/svg" p-id="2328" width="200" height="200"><path d="M808.125883 243.195881 134.874315 243.195881c-30.608112 0-55.513338 24.905226-55.513338 55.520501l0 505.178641c0 30.615275 24.905226 55.520501 55.513338 55.520501L808.125883 859.415524c30.607088 0 55.512315-24.905226 55.512315-55.520501L863.638197 298.716382C863.638197 268.101107 838.733994 243.195881 808.125883 243.195881zM835.629283 803.895023c0 15.167444-12.338003 27.510564-27.503401 27.510564L134.874315 831.405587c-15.167444 0-27.504424-12.343119-27.504424-27.510564L107.369891 383.246591l728.259392 0L835.629283 803.895023zM835.629283 355.236654 107.370915 355.236654l0-56.519248c0-15.173584 12.33698-27.510564 27.504424-27.510564L808.125883 271.206842c15.165398 0 27.503401 12.33698 27.503401 27.510564L835.629283 355.236654zM920.166655 131.156132 274.924002 131.156132c-30.608112 0-55.513338 24.905226-55.513338 55.514361l0 28.515451c0 7.734148 6.263657 14.004969 14.005992 14.004969 7.740288 0 14.005992-6.27082 14.005992-14.004969l0-28.515451c0-15.167444 12.33698-27.504424 27.503401-27.504424L920.167678 159.166069c15.165398 0 27.503401 12.33698 27.503401 27.504424l0 519.188726c0 15.167444-12.338003 27.511587-27.503401 27.511587l-28.516474 0c-7.739265 0-14.004969 6.27082-14.004969 14.004969 0 7.736195 6.263657 14.007015 14.004969 14.007015l28.516474 0c30.607088 0 55.512315-24.905226 55.512315-55.521524L975.679993 186.670493C975.67897 156.061358 950.773743 131.156132 920.166655 131.156132zM219.410664 299.216779l-56.019875 0c-7.740288 0-14.005992 6.27082-14.005992 13.998829 0 7.740288 6.263657 14.011108 14.005992 14.011108l56.019875 0c7.740288 0 14.005992-6.27082 14.005992-14.011108C233.415632 305.487599 227.151975 299.216779 219.410664 299.216779zM331.450413 299.216779l-56.019875 0c-7.741311 0-14.005992 6.27082-14.005992 13.998829 0 7.740288 6.262634 14.011108 14.005992 14.011108l56.019875 0c7.739265 0 14.004969-6.27082 14.004969-14.011108C345.455381 305.487599 339.191724 299.216779 331.450413 299.216779zM443.490162 299.216779l-56.018851 0c-7.741311 0-14.007015 6.27082-14.007015 13.998829 0 7.740288 6.263657 14.011108 14.007015 14.011108l56.018851 0c7.740288 0 14.005992-6.27082 14.005992-14.011108C457.49513 305.487599 451.231473 299.216779 443.490162 299.216779z" fill="#696969" p-id="2329"></path></svg>