<svg t="1695216594977" class="icon" viewBox="0 0 1024 1024" version="1.1" xmlns="http://www.w3.org/2000/svg" p-id="2492" width="200" height="200"><path d="M716.8 614.4c-169.472 0-307.2-137.728-307.2-307.2s137.728-307.2 307.2-307.2c32.256 0 64 5.12 94.72 14.848l39.936 12.8L664.064 215.04v144.896H808.96l187.392-187.392 12.8 39.936c9.728 30.72 14.848 62.464 14.848 94.72 0 169.472-137.728 307.2-307.2 307.2z m0-563.2c-141.312 0-256 114.688-256 256s114.688 256 256 256 256-114.688 256-256c0-12.288-1.024-24.064-2.56-36.352l-140.288 140.288h-217.088V194.048l140.288-140.288c-12.288-1.536-24.064-2.56-36.352-2.56z" fill="" p-id="2493"></path><path d="M153.6 1024c-84.48 0-153.6-69.12-153.6-153.6 0-40.448 15.36-78.336 43.52-107.008L428.032 378.88l36.352 36.352-384 384C61.44 818.176 51.2 843.776 51.2 870.4c0 56.32 46.08 102.4 102.4 102.4 27.648 0 53.76-10.752 72.704-30.72l9.216-9.216 373.248-373.248 36.352 36.352-377.856 377.856-4.096 4.096c-29.184 29.696-68.096 46.08-109.568 46.08z" fill="" p-id="2494"></path></svg>